<?xml version="1.0" encoding="UTF-8"?>
<!DOCTYPE svg PUBLIC "-//W3C//DTD SVG 1.1//EN" "http://www.w3.org/Graphics/SVG/1.1/DTD/svg11.dtd">
<!-- Creator: CorelDRAW 2019 (64-Bit) -->
<svg xmlns="http://www.w3.org/2000/svg" xml:space="preserve" width="1655px" height="595px" version="1.1" style="shape-rendering:geometricPrecision; text-rendering:geometricPrecision; image-rendering:optimizeQuality; fill-rule:evenodd; clip-rule:evenodd"
viewBox="0 0 351.65 126.52"
 xmlns:xlink="http://www.w3.org/1999/xlink">
 <defs>
  <style type="text/css">
   <![CDATA[
    .fil3 {fill:none}
    .fil0 {fill:black}
    .fil1 {fill:#2B53DB}
    .fil2 {fill:black;fill-rule:nonzero}
   ]]>
  </style>
 </defs>
 <g id="Layer_x0020_1">
  <metadata id="CorelCorpID_0Corel-Layer"/>
  <g id="_1990622611344">
   <path class="fil0" d="M49.23 68.78c-2.73,-4.83 -1.58,-2.7 -13.13,-23.08 -0.04,0 -0.07,0 -0.11,0 0.02,-0.03 0.04,-0.06 0.05,-0.09 1.54,-2.71 2.97,-5.23 4.3,-7.58 1.59,-2.8 3.03,-5.35 4.35,-7.68 1.64,-2.88 3.08,-5.42 4.35,-7.67 -3.01,0 -6.11,0 -9.32,0 -1.32,2.25 -2.82,4.79 -4.51,7.67 -1.37,2.33 -2.87,4.88 -4.52,7.68 -1.38,2.35 -2.87,4.87 -4.46,7.58 0.02,0.03 0.04,0.06 0.06,0.09 12,20.4 10.72,18.23 13.56,23.05 3.11,0 6.45,0.03 9.38,0.03z"/>
   <path class="fil0" d="M49.15 45.7c13.25,22.52 18.55,31.53 20.67,35.13 3.12,0 6.13,0 9.02,0 -2.05,-3.62 -7.17,-12.64 -19.92,-35.13 -3.14,0 -6.39,0 -9.77,0z"/>
   <path class="fil0" d="M72.04 45.7c13.25,22.52 18.55,31.53 20.66,35.13 3.15,0 6.16,0 9.02,0 -2.05,-3.62 -7.16,-12.64 -19.92,-35.13 -3.1,0 -6.35,0 -9.76,0z"/>
   <path class="fil1" d="M99.45 53.37c9.98,16.97 14.29,24.3 16.15,27.46 3.23,0 6.22,0 9,0 -1.8,-3.18 -5.96,-10.51 -15.57,-27.46 -1.34,-2.37 -2.79,-4.92 -4.35,-7.67 -3.01,0 -6.25,0 -9.74,0 -0.01,0 -0.02,0 -0.02,0 -3.55,0 -7.36,0 -11.44,0 1.62,2.75 3.12,5.3 4.51,7.67 4.11,0 7.91,0 11.44,0 0.01,0 0.01,0 0.02,0z"/>
   <path class="fil1" d="M110.85 53.37c9.48,0 16.24,0 21.06,0 -1.33,-2.36 -2.78,-4.91 -4.35,-7.67 -5.22,0 -12.12,0 -21.22,0 1.62,2.75 3.12,5.3 4.51,7.67z"/>
   <path class="fil0" d="M123.93 103.84c2.73,-4.83 1.57,-2.63 13.13,-23.01 0.03,0 0.07,0 0.1,0 -0.02,-0.03 -0.03,-0.06 -0.05,-0.09 -1.54,-2.71 -2.97,-5.23 -4.3,-7.58 -1.58,-2.8 -3.03,-5.35 -4.35,-7.68 -1.63,-2.88 -3.08,-5.42 -4.35,-7.67 3.01,0 6.12,0 9.32,0 1.33,2.25 2.82,4.79 4.52,7.67 1.37,2.33 2.87,4.88 4.51,7.68 1.38,2.35 2.87,4.87 4.46,7.58 -0.02,0.03 -0.03,0.06 -0.05,0.09 -12,20.4 -10.71,18.19 -13.54,23.01 -3.11,0 -6.47,0 -9.4,0z"/>
   <path class="fil2" d="M160.72 63.81l0 -12.88 4.05 0 2.09 5.92c0.08,0.27 0.18,0.62 0.29,1.06 0.11,0.44 0.23,0.91 0.34,1.41 0.12,0.51 0.23,0.99 0.33,1.46 0.1,-0.46 0.2,-0.94 0.32,-1.45 0.11,-0.5 0.22,-0.98 0.33,-1.41 0.12,-0.44 0.21,-0.8 0.3,-1.07l2.05 -5.92 4.07 0 0 12.88 -2.65 0 0 -6.07c0,-0.33 0,-0.74 0.02,-1.24 0.01,-0.5 0.03,-1.04 0.04,-1.62 0.02,-0.57 0.02,-1.13 0.03,-1.67 -0.14,0.57 -0.3,1.15 -0.45,1.73 -0.16,0.58 -0.31,1.12 -0.46,1.61 -0.14,0.49 -0.26,0.88 -0.37,1.19l-2.13 6.07 -2.23 0 -2.17 -6.07c-0.1,-0.3 -0.21,-0.68 -0.36,-1.15 -0.14,-0.47 -0.29,-1 -0.45,-1.56 -0.16,-0.57 -0.32,-1.14 -0.47,-1.72 0.02,0.52 0.03,1.06 0.04,1.62 0.02,0.56 0.03,1.09 0.04,1.58 0.01,0.5 0.02,0.9 0.02,1.23l0 6.07 -2.62 0z"/>
   <polygon id="1" class="fil2" points="180.81,50.93 180.81,63.81 178.18,63.81 178.18,50.93 "/>
   <path id="2" class="fil2" d="M184.11 63.81l0 -12.88 2.64 0 0 3.52 -0.05 2.93c0.29,-0.45 0.59,-0.89 0.9,-1.32 0.32,-0.43 0.69,-0.91 1.12,-1.43l3.15 -3.7 3.23 0 -4.82 5.58 4.96 7.3 -3.12 0 -3.66 -5.56 -1.71 1.88 0 3.68 -2.64 0z"/>
   <path id="3" class="fil2" d="M197.81 63.81l0 -12.88 2.63 0 0 3.52 -0.04 2.93c0.28,-0.45 0.58,-0.89 0.9,-1.32 0.32,-0.43 0.69,-0.91 1.11,-1.43l3.16 -3.7 3.22 0 -4.81 5.58 4.95 7.3 -3.12 0 -3.66 -5.56 -1.71 1.88 0 3.68 -2.63 0z"/>
   <path id="4" class="fil2" d="M216.45 63.99c-1.14,0 -2.16,-0.26 -3.07,-0.78 -0.91,-0.52 -1.62,-1.27 -2.15,-2.26 -0.53,-0.98 -0.79,-2.17 -0.79,-3.57 0,-1.4 0.26,-2.59 0.79,-3.58 0.53,-0.99 1.24,-1.74 2.15,-2.26 0.91,-0.52 1.93,-0.78 3.07,-0.78 1.14,0 2.16,0.26 3.07,0.78 0.9,0.52 1.62,1.27 2.15,2.26 0.52,0.99 0.79,2.18 0.79,3.58 0,1.4 -0.27,2.59 -0.79,3.58 -0.53,0.98 -1.25,1.73 -2.15,2.25 -0.91,0.52 -1.93,0.78 -3.07,0.78zm0 -2.35c1,0 1.8,-0.36 2.41,-1.09 0.61,-0.73 0.92,-1.79 0.92,-3.17 0,-1.39 -0.31,-2.45 -0.92,-3.18 -0.61,-0.73 -1.41,-1.1 -2.41,-1.1 -1,0 -1.8,0.37 -2.42,1.11 -0.61,0.73 -0.91,1.79 -0.91,3.17 0,1.38 0.3,2.44 0.91,3.17 0.62,0.73 1.42,1.09 2.42,1.09z"/>
   <polygon id="5" class="fil2" points="229.07,53.12 229.07,50.93 239.59,50.93 239.59,53.12 235.66,53.12 235.66,63.81 233.01,63.81 233.01,53.12 "/>
   <polygon id="6" class="fil2" points="245.01,50.93 245.01,63.81 242.37,63.81 242.37,50.93 "/>
   <path id="7" class="fil2" d="M248.31 63.81l0 -12.88 5.02 0c1.46,0 2.6,0.38 3.4,1.15 0.8,0.76 1.2,1.78 1.2,3.05 0,0.88 -0.19,1.63 -0.58,2.26 -0.39,0.62 -0.96,1.09 -1.7,1.4l2.75 5.02 -2.93 0 -2.45 -4.6 -2.08 0 0 4.6 -2.63 0zm2.63 -6.73l1.9 0c1.58,0 2.37,-0.65 2.37,-1.95 0,-0.66 -0.19,-1.15 -0.58,-1.5 -0.39,-0.34 -0.99,-0.52 -1.79,-0.52l-1.9 0 0 3.97z"/>
   <path id="8" class="fil2" d="M260.89 63.81l0 -12.88 5.03 0c1.46,0 2.59,0.38 3.4,1.15 0.8,0.76 1.2,1.78 1.2,3.05 0,0.88 -0.19,1.63 -0.58,2.26 -0.4,0.62 -0.96,1.09 -1.7,1.4l2.74 5.02 -2.92 0 -2.46 -4.6 -2.07 0 0 4.6 -2.64 0zm2.64 -6.73l1.9 0c1.58,0 2.37,-0.65 2.37,-1.95 0,-0.66 -0.19,-1.15 -0.58,-1.5 -0.39,-0.34 -0.99,-0.52 -1.8,-0.52l-1.89 0 0 3.97z"/>
   <path id="9" class="fil2" d="M279.14 63.99c-1.14,0 -2.16,-0.26 -3.07,-0.78 -0.91,-0.52 -1.62,-1.27 -2.15,-2.26 -0.53,-0.98 -0.79,-2.17 -0.79,-3.57 0,-1.4 0.26,-2.59 0.79,-3.58 0.53,-0.99 1.24,-1.74 2.15,-2.26 0.91,-0.52 1.93,-0.78 3.07,-0.78 1.14,0 2.16,0.26 3.07,0.78 0.9,0.52 1.62,1.27 2.14,2.26 0.53,0.99 0.79,2.18 0.79,3.58 0,1.4 -0.26,2.59 -0.79,3.58 -0.52,0.98 -1.24,1.73 -2.14,2.25 -0.91,0.52 -1.93,0.78 -3.07,0.78zm0 -2.35c1,0 1.8,-0.36 2.41,-1.09 0.61,-0.73 0.92,-1.79 0.92,-3.17 0,-1.39 -0.31,-2.45 -0.92,-3.18 -0.61,-0.73 -1.41,-1.1 -2.41,-1.1 -1,0 -1.81,0.37 -2.42,1.11 -0.61,0.73 -0.91,1.79 -0.91,3.17 0,1.38 0.3,2.44 0.91,3.17 0.61,0.73 1.42,1.09 2.42,1.09z"/>
   <path id="10" class="fil2" d="M288.09 63.81l0 -12.88 2.94 0 4.07 6.52c0.25,0.42 0.51,0.88 0.78,1.39 0.27,0.5 0.55,1.09 0.83,1.77 -0.04,-0.64 -0.08,-1.27 -0.11,-1.91 -0.04,-0.64 -0.05,-1.17 -0.05,-1.59l0 -6.18 2.7 0 0 12.88 -2.95 0 -3.7 -5.91c-0.24,-0.39 -0.46,-0.76 -0.66,-1.12 -0.2,-0.37 -0.41,-0.75 -0.62,-1.17 -0.21,-0.41 -0.44,-0.88 -0.71,-1.42 0.05,0.78 0.09,1.5 0.12,2.15 0.04,0.65 0.05,1.17 0.05,1.55l0 5.92 -2.69 0z"/>
   <polygon id="11" class="fil2" points="302.54,63.81 302.54,50.93 311.16,50.93 311.16,53.12 305.18,53.12 305.18,56.23 310.71,56.23 310.71,58.38 305.18,58.38 305.18,61.63 311.18,61.63 311.18,63.81 "/>
   <path id="12" class="fil2" d="M314.26 63.81l0 -12.88 2.94 0 4.07 6.52c0.25,0.42 0.52,0.88 0.79,1.39 0.27,0.5 0.55,1.09 0.83,1.77 -0.05,-0.64 -0.09,-1.27 -0.12,-1.91 -0.03,-0.64 -0.05,-1.17 -0.05,-1.59l0 -6.18 2.7 0 0 12.88 -2.95 0 -3.7 -5.91c-0.23,-0.39 -0.45,-0.76 -0.65,-1.12 -0.21,-0.37 -0.41,-0.75 -0.62,-1.17 -0.21,-0.41 -0.45,-0.88 -0.72,-1.42 0.05,0.78 0.09,1.5 0.13,2.15 0.03,0.65 0.05,1.17 0.05,1.55l0 5.92 -2.7 0z"/>
   <path class="fil2" d="M214.66 75.76c-0.7,0 -1.25,-0.16 -1.66,-0.49 -0.42,-0.33 -0.64,-0.77 -0.68,-1.31l0.84 0c0.03,0.25 0.11,0.45 0.25,0.6 0.14,0.16 0.32,0.28 0.54,0.35 0.22,0.08 0.46,0.12 0.71,0.12 0.29,0 0.55,-0.05 0.79,-0.15 0.23,-0.09 0.41,-0.22 0.55,-0.4 0.13,-0.17 0.2,-0.37 0.2,-0.6 0,-0.21 -0.06,-0.37 -0.18,-0.5 -0.11,-0.13 -0.27,-0.24 -0.46,-0.32 -0.19,-0.09 -0.41,-0.16 -0.64,-0.22l-0.77 -0.22c-0.52,-0.15 -0.93,-0.36 -1.21,-0.63 -0.29,-0.28 -0.44,-0.63 -0.44,-1.05 0,-0.37 0.1,-0.69 0.3,-0.96 0.19,-0.27 0.46,-0.48 0.79,-0.63 0.34,-0.15 0.71,-0.23 1.13,-0.23 0.42,0 0.79,0.08 1.12,0.23 0.33,0.15 0.58,0.35 0.77,0.61 0.19,0.26 0.29,0.55 0.3,0.87l-0.8 0c-0.04,-0.31 -0.19,-0.55 -0.45,-0.72 -0.26,-0.18 -0.59,-0.26 -0.97,-0.26 -0.42,0 -0.75,0.1 -1.01,0.3 -0.25,0.19 -0.38,0.44 -0.38,0.75 0,0.22 0.07,0.4 0.21,0.54 0.14,0.14 0.31,0.24 0.5,0.32 0.19,0.07 0.36,0.13 0.52,0.18l0.64 0.17c0.18,0.05 0.37,0.11 0.58,0.19 0.21,0.09 0.4,0.19 0.6,0.33 0.19,0.13 0.34,0.3 0.46,0.51 0.13,0.2 0.19,0.46 0.19,0.75 0,0.36 -0.09,0.67 -0.28,0.96 -0.18,0.28 -0.44,0.5 -0.79,0.67 -0.35,0.16 -0.77,0.24 -1.27,0.24z"/>
   <path id="1" class="fil2" d="M221.56 75.74c-0.55,0 -1.05,-0.14 -1.48,-0.4 -0.43,-0.27 -0.77,-0.65 -1.01,-1.14 -0.25,-0.5 -0.38,-1.09 -0.38,-1.77 0,-0.68 0.13,-1.27 0.38,-1.76 0.24,-0.49 0.58,-0.88 1.01,-1.14 0.43,-0.27 0.93,-0.41 1.48,-0.41 0.55,0 1.04,0.14 1.47,0.41 0.43,0.26 0.76,0.65 1.01,1.14 0.25,0.49 0.37,1.08 0.37,1.76 0,0.68 -0.12,1.27 -0.37,1.77 -0.25,0.49 -0.58,0.87 -1.01,1.14 -0.43,0.26 -0.92,0.4 -1.47,0.4zm0 -0.76c0.38,0 0.72,-0.1 1.03,-0.3 0.31,-0.19 0.56,-0.48 0.74,-0.86 0.19,-0.38 0.28,-0.84 0.28,-1.39 0,-0.55 -0.09,-1.02 -0.28,-1.39 -0.18,-0.38 -0.43,-0.67 -0.74,-0.86 -0.31,-0.2 -0.65,-0.3 -1.03,-0.3 -0.39,0 -0.74,0.1 -1.05,0.3 -0.31,0.19 -0.56,0.48 -0.74,0.86 -0.18,0.38 -0.28,0.84 -0.28,1.39 0,0.55 0.1,1.01 0.28,1.39 0.18,0.38 0.43,0.67 0.74,0.86 0.31,0.2 0.66,0.3 1.05,0.3z"/>
   <polygon id="2" class="fil2" points="226.38,75.65 226.38,69.21 230.28,69.21 230.28,69.94 227.2,69.94 227.2,72.14 229.98,72.14 229.98,72.87 227.2,72.87 227.2,75.65 "/>
   <polygon id="3" class="fil2" points="231.92,69.94 231.92,69.21 236.79,69.21 236.79,69.94 234.77,69.94 234.77,75.65 233.95,75.65 233.95,69.94 "/>
   <path id="4" class="fil2" d="M239.86 75.65l-1.76 -6.44 0.84 0 1.02 3.95c0.07,0.28 0.14,0.56 0.2,0.84 0.06,0.29 0.12,0.58 0.18,0.88 0.06,-0.3 0.12,-0.59 0.18,-0.88 0.07,-0.28 0.13,-0.56 0.21,-0.84l1.04 -3.95 0.93 0 1.04 3.95c0.14,0.54 0.27,1.11 0.39,1.7 0.06,-0.3 0.12,-0.59 0.18,-0.87 0.07,-0.28 0.13,-0.56 0.2,-0.83l1.02 -3.95 0.84 0 -1.76 6.44 -0.95 0 -1.11 -4.08c-0.06,-0.2 -0.11,-0.42 -0.16,-0.66 -0.06,-0.23 -0.11,-0.49 -0.16,-0.77 -0.05,0.26 -0.09,0.51 -0.14,0.74 -0.05,0.22 -0.11,0.46 -0.17,0.69l-1.1 4.08 -0.96 0z"/>
   <path id="5" class="fil2" d="M246.99 75.65l2.34 -6.44 0.95 0 2.37 6.44 -0.87 0 -0.64 -1.8 -2.66 0 -0.62 1.8 -0.87 0zm1.75 -2.52l2.14 0 -0.46 -1.3c-0.08,-0.22 -0.17,-0.48 -0.27,-0.79 -0.09,-0.32 -0.21,-0.71 -0.35,-1.17 -0.14,0.47 -0.25,0.87 -0.36,1.19 -0.1,0.31 -0.18,0.57 -0.25,0.77l-0.45 1.3z"/>
   <path id="6" class="fil2" d="M254.32 75.65l0 -6.44 2.2 0c0.5,0 0.92,0.09 1.24,0.26 0.32,0.17 0.57,0.4 0.72,0.7 0.16,0.3 0.24,0.65 0.24,1.03 0,0.42 -0.1,0.8 -0.29,1.11 -0.2,0.32 -0.5,0.55 -0.91,0.69l1.45 2.65 -0.95 0 -1.34 -2.5c-0.05,0 -0.1,0 -0.15,0l-1.39 0 0 2.5 -0.82 0zm0.82 -3.23l1.35 0c0.5,0 0.87,-0.11 1.08,-0.33 0.22,-0.22 0.33,-0.51 0.33,-0.89 0,-0.38 -0.11,-0.69 -0.33,-0.92 -0.21,-0.23 -0.58,-0.35 -1.09,-0.35l-1.34 0 0 2.49z"/>
   <polygon id="7" class="fil2" points="260.68,75.65 260.68,69.21 264.61,69.21 264.61,69.94 261.5,69.94 261.5,72.04 264.39,72.04 264.39,72.76 261.5,72.76 261.5,74.92 264.64,74.92 264.64,75.65 "/>
   <path id="8" class="fil2" d="M271.17 75.65l-2.01 0 0 -6.44 2.09 0c0.63,0 1.16,0.13 1.61,0.38 0.44,0.26 0.79,0.63 1.02,1.11 0.24,0.48 0.36,1.05 0.36,1.72 0,0.67 -0.12,1.25 -0.36,1.73 -0.24,0.48 -0.59,0.85 -1.04,1.11 -0.46,0.26 -1.02,0.39 -1.67,0.39zm-1.19 -0.73l1.13 0c0.79,0 1.37,-0.22 1.76,-0.66 0.38,-0.45 0.58,-1.06 0.58,-1.84 0,-0.78 -0.19,-1.38 -0.57,-1.82 -0.38,-0.44 -0.94,-0.66 -1.69,-0.66l-1.21 0 0 4.98z"/>
   <polygon id="9" class="fil2" points="276.21,75.65 276.21,69.21 280.14,69.21 280.14,69.94 277.03,69.94 277.03,72.04 279.93,72.04 279.93,72.76 277.03,72.76 277.03,74.92 280.18,74.92 280.18,75.65 "/>
   <path id="10" class="fil2" d="M284.02 75.65l-2.37 -6.44 0.86 0 1.36 3.82c0.07,0.2 0.16,0.46 0.26,0.78 0.11,0.32 0.22,0.71 0.36,1.17 0.14,-0.47 0.25,-0.86 0.36,-1.18 0.1,-0.31 0.18,-0.57 0.25,-0.77l1.33 -3.82 0.87 0 -2.34 6.44 -0.94 0z"/>
   <polygon id="11" class="fil2" points="288.97,75.65 288.97,69.21 292.9,69.21 292.9,69.94 289.8,69.94 289.8,72.04 292.69,72.04 292.69,72.76 289.8,72.76 289.8,74.92 292.94,74.92 292.94,75.65 "/>
   <polygon id="12" class="fil2" points="294.96,75.65 294.96,69.21 295.78,69.21 295.78,74.92 298.76,74.92 298.76,75.65 "/>
   <path id="13" class="fil2" d="M302.99 75.74c-0.55,0 -1.04,-0.14 -1.47,-0.4 -0.43,-0.27 -0.77,-0.65 -1.02,-1.14 -0.24,-0.5 -0.37,-1.09 -0.37,-1.77 0,-0.68 0.13,-1.27 0.37,-1.76 0.25,-0.49 0.59,-0.88 1.02,-1.14 0.43,-0.27 0.92,-0.41 1.47,-0.41 0.55,0 1.04,0.14 1.47,0.41 0.43,0.26 0.77,0.65 1.02,1.14 0.24,0.49 0.37,1.08 0.37,1.76 0,0.68 -0.13,1.27 -0.37,1.77 -0.25,0.49 -0.59,0.87 -1.02,1.14 -0.43,0.26 -0.92,0.4 -1.47,0.4zm0 -0.76c0.39,0 0.73,-0.1 1.04,-0.3 0.31,-0.19 0.56,-0.48 0.74,-0.86 0.18,-0.38 0.28,-0.84 0.28,-1.39 0,-0.55 -0.1,-1.02 -0.28,-1.39 -0.18,-0.38 -0.43,-0.67 -0.74,-0.86 -0.31,-0.2 -0.65,-0.3 -1.04,-0.3 -0.38,0 -0.73,0.1 -1.04,0.3 -0.31,0.19 -0.56,0.48 -0.74,0.86 -0.19,0.38 -0.28,0.84 -0.28,1.39 0,0.55 0.09,1.01 0.28,1.39 0.18,0.38 0.43,0.67 0.74,0.86 0.31,0.2 0.66,0.3 1.04,0.3z"/>
   <path id="14" class="fil2" d="M307.82 75.65l0 -6.44 2.2 0c0.5,0 0.92,0.09 1.24,0.27 0.33,0.19 0.57,0.43 0.72,0.74 0.16,0.31 0.24,0.66 0.24,1.04 0,0.38 -0.08,0.73 -0.24,1.04 -0.15,0.31 -0.39,0.56 -0.72,0.74 -0.32,0.19 -0.73,0.28 -1.23,0.28l-1.39 0 0 2.33 -0.82 0zm0.82 -3.05l1.35 0c0.51,0 0.87,-0.13 1.09,-0.38 0.21,-0.26 0.32,-0.58 0.32,-0.96 0,-0.38 -0.11,-0.7 -0.32,-0.95 -0.22,-0.25 -0.58,-0.38 -1.1,-0.38l-1.34 0 0 2.67z"/>
   <polygon id="15" class="fil2" points="314.14,75.65 314.14,69.21 318.06,69.21 318.06,69.94 314.96,69.94 314.96,72.04 317.85,72.04 317.85,72.76 314.96,72.76 314.96,74.92 318.1,74.92 318.1,75.65 "/>
   <path id="16" class="fil2" d="M320.13 75.65l0 -6.44 2.2 0c0.5,0 0.91,0.09 1.24,0.26 0.32,0.17 0.56,0.4 0.72,0.7 0.16,0.3 0.24,0.65 0.24,1.03 0,0.42 -0.1,0.8 -0.3,1.11 -0.19,0.32 -0.49,0.55 -0.9,0.69l1.45 2.65 -0.95 0 -1.34 -2.5c-0.05,0 -0.1,0 -0.16,0l-1.38 0 0 2.5 -0.82 0zm0.82 -3.23l1.35 0c0.5,0 0.87,-0.11 1.08,-0.33 0.22,-0.22 0.33,-0.51 0.33,-0.89 0,-0.38 -0.11,-0.69 -0.33,-0.92 -0.21,-0.23 -0.58,-0.35 -1.09,-0.35l-1.34 0 0 2.49z"/>
   <rect class="fil3" width="351.65" height="126.52" rx="18.02" ry="10.62"/>
  </g>
 </g>
</svg>
